# Blender v2.76 (sub 0) OBJ File: 'Item_Panel.blend'
# www.blender.org
mtllib input_pane.mtl
o Cube
v 0.062500 0.000000 0.937500
v 0.125000 0.125000 0.875000
v 0.062500 0.000000 0.062500
v 0.125000 0.125000 0.125000
v 0.937500 0.000000 0.937500
v 0.875000 0.125000 0.875000
v 0.937500 0.000000 0.062500
v 0.875000 0.125000 0.125000
v 0.812500 0.125000 0.187500
v 0.187500 0.125000 0.187500
v 0.812500 0.125000 0.812500
v 0.187500 0.125000 0.812500
v 0.750000 0.187500 0.750000
v 0.750000 0.187500 0.250000
v 0.250000 0.187500 0.750000
v 0.250000 0.187500 0.250000
v 0.625000 0.250000 0.375000
v 0.375000 0.250000 0.625000
v 0.375000 0.250000 0.375000
v 0.625000 0.250000 0.625000
v 0.312500 0.187500 0.687501
v 0.312500 0.187500 0.312500
v 0.687500 0.187500 0.312500
v 0.687500 0.187500 0.687501
v 0.562500 0.187500 0.562500
v 0.437500 0.187500 0.562500
v 0.437500 0.187500 0.437500
v 0.562500 0.187500 0.437500
v 0.187500 0.062500 0.812500
v 0.187500 0.062500 0.187500
v 0.812500 0.062500 0.812500
v 0.812500 0.062500 0.187500
v 0.125000 0.000000 0.125000
v 0.875000 0.000000 0.125000
v 0.125000 0.000000 0.874999
v 0.875000 0.000000 0.874999
vt 0.062500 0.093750
vt 0.062500 0.468750
vt 0.000000 0.500000
vt 0.000000 0.062500
vt 0.437500 0.468750
vt 0.468750 0.531250
vt 0.031250 0.531250
vt 0.437500 0.093750
vt 0.500000 0.062500
vt 0.500000 0.500000
vt 0.031250 0.031250
vt 0.468750 0.031250
vt 0.406250 0.968750
vt 0.406250 0.593750
vt 0.437500 0.562500
vt 0.437500 1.000000
vt 0.406250 0.125000
vt 0.093750 0.125000
vt 0.093750 0.437500
vt 0.406250 0.437500
vt 0.125000 0.406250
vt 0.375000 0.406250
vt 0.156250 0.187500
vt 0.343750 0.187500
vt 0.312500 0.218750
vt 0.187500 0.218750
vt 0.375000 0.156250
vt 0.125000 0.156250
vt 0.156250 0.375000
vt 0.187500 0.343750
vt 0.343750 0.375000
vt 0.312500 0.343750
vt 0.218750 0.312500
vt 0.281250 0.312500
vt 0.218750 0.250000
vt 0.281250 0.250000
vt 0.000000 1.000000
vt -0.000000 0.562500
vt 0.031250 0.593750
vt 0.031250 0.968750
vt 0.062500 0.937500
vt 0.375000 0.937500
vt 0.375000 0.625000
vt 0.062500 0.625000
vn -0.894400 0.447200 0.000000
vn 0.000000 0.447200 -0.894400
vn 0.894400 0.447200 0.000000
vn 0.000000 0.447200 0.894400
vn 0.000000 -1.000000 0.000000
vn 0.000000 1.000000 0.000000
vn 0.000000 0.707100 -0.707100
vn -0.000000 0.707100 0.707100
vn -0.707100 0.707100 0.000000
vn 0.707100 0.707100 0.000000
vn -0.000000 -0.707100 -0.707100
vn -0.707100 -0.707100 0.000000
vn 0.707100 -0.707100 0.000000
vn 0.000000 -0.707100 0.707100
usemtl None
s off
f 2/1/1 4/2/1 3/3/1 1/4/1
f 4/2/2 8/5/2 7/6/2 3/7/2
f 8/5/3 6/8/3 5/9/3 7/10/3
f 6/8/4 2/1/4 1/11/4 5/12/4
f 36/13/5 34/14/5 7/15/5 5/16/5
f 6/8/6 11/17/6 12/18/6 2/1/6
f 4/2/6 10/19/6 9/20/6 8/5/6
f 6/8/6 8/5/6 9/20/6 11/17/6
f 2/1/6 12/18/6 10/19/6 4/2/6
f 9/20/7 10/19/7 16/21/7 14/22/7
f 21/23/8 24/24/8 20/25/8 18/26/8
f 12/18/8 11/17/8 13/27/8 15/28/8
f 10/19/9 12/18/9 15/28/9 16/21/9
f 11/17/10 9/20/10 14/22/10 13/27/10
f 22/29/9 21/23/9 18/26/9 19/30/9
f 22/29/6 23/31/6 14/22/6 16/21/6
f 16/21/6 15/28/6 21/23/6 22/29/6
f 23/31/7 22/29/7 19/30/7 17/32/7
f 13/27/6 14/22/6 23/31/6 24/24/6
f 17/32/8 19/30/8 27/33/8 28/34/8
f 15/28/6 13/27/6 24/24/6 21/23/6
f 24/24/10 23/31/10 17/32/10 20/25/10
f 26/35/6 25/36/6 28/34/6 27/33/6
f 18/26/7 20/25/7 25/36/7 26/35/7
f 20/25/9 17/32/9 28/34/9 25/36/9
f 19/30/10 18/26/10 26/35/10 27/33/10
f 1/37/5 3/38/5 33/39/5 35/40/5
f 36/13/11 35/40/11 29/41/11 31/42/11
f 34/14/12 36/13/12 31/42/12 32/43/12
f 29/41/5 30/44/5 32/43/5 31/42/5
f 3/38/5 7/15/5 34/14/5 33/39/5
f 35/40/5 36/13/5 5/16/5 1/37/5
f 35/40/13 33/39/13 30/44/13 29/41/13
f 33/39/14 34/14/14 32/43/14 30/44/14
