# Blender v2.76 (sub 0) OBJ File: 'ExtenderBase.blend'
# www.blender.org
mtllib block_extender_glass.mtl
o Plane
v 0.062500 0.062500 0.968750
v 0.937500 0.062500 0.968750
v 0.062500 0.937500 0.968750
v 0.937500 0.937500 0.968750
v 0.062500 0.062500 0.937500
v 0.062500 0.937500 0.937500
v 0.937500 0.937500 0.937500
v 0.031250 0.937500 0.937500
v 0.031250 0.937500 0.062500
v 0.031250 0.062500 0.937500
v 0.031250 0.062500 0.062500
v 0.968750 0.937500 0.937500
v 0.968750 0.937500 0.062500
v 0.968750 0.062500 0.937500
v 0.968750 0.062500 0.062500
v 0.937500 0.937500 0.062500
v 0.937500 0.062500 0.937500
v 0.937500 0.062500 0.062500
v 0.062500 0.062500 0.062500
v 0.062500 0.062500 0.031250
v 0.937500 0.062500 0.031250
v 0.062500 0.937500 0.031250
v 0.937500 0.937500 0.031250
v 0.062500 0.937500 0.062500
v 0.937500 0.968750 0.062500
v 0.937500 0.968750 0.937500
v 0.062500 0.968750 0.062500
v 0.062500 0.968750 0.937500
vt 0.156250 0.734375
vt 0.265625 0.734375
vt 0.265625 0.843750
vt 0.156250 0.843750
vt 0.015625 0.734375
vt 0.125000 0.734375
vt 0.125000 0.843750
vt 0.015625 0.843750
vt 0.406250 0.734375
vt 0.406250 0.843750
vt 0.296875 0.843750
vt 0.296875 0.734375
vt 0.546875 0.734375
vt 0.546875 0.843750
vt 0.437500 0.843750
vt 0.437500 0.734375
vt 0.265625 0.984375
vt 0.156250 0.984375
vt 0.156250 0.875000
vt 0.265625 0.875000
vn 0.000000 0.000000 1.000000
vn -1.000000 0.000000 0.000000
vn 1.000000 -0.000000 0.000000
vn 0.000000 0.000000 -1.000000
vn 0.000000 1.000000 0.000000
vn 0.000000 -1.000000 0.000000
usemtl None
f 1/1/1 2/2/1 4/3/1 3/4/1
f 11/5/2 10/6/2 8/7/2 9/8/2
f 15/9/3 13/10/3 12/11/3 14/12/3
f 20/13/4 22/14/4 23/15/4 21/16/4
f 25/17/5 27/18/5 28/19/5 26/20/5
f 5/2/4 6/3/4 7/4/4 17/1/4
f 19/6/3 24/7/3 6/8/3 5/5/3
f 18/12/2 17/9/2 7/10/2 16/11/2
f 19/16/1 18/13/1 16/14/1 24/15/1
f 16/18/6 7/19/6 6/20/6 24/17/6
