# Blender v2.76 (sub 0) OBJ File: 'Item_Panel.blend'
# www.blender.org
mtllib item_panel.mtl
o Cube.001_Cube.002
v 0.128125 0.125286 -0.871875
v 0.075000 0.005286 -0.925000
v 0.075000 0.005286 -0.075000
v 0.128125 0.125286 -0.128125
v 0.818750 0.125286 -0.181250
v 0.181250 0.125286 -0.181250
v 0.871875 0.125286 -0.128125
v 0.181250 0.014286 -0.818750
v 0.234375 0.014286 -0.765625
v 0.234375 0.014286 -0.234375
v 0.181250 0.014286 -0.181250
v 0.234375 0.185286 -0.765625
v 0.765625 0.185286 -0.765625
v 0.818750 0.125286 -0.818750
v 0.181250 0.125286 -0.818750
v 0.871875 0.005286 -0.871875
v 0.925000 0.005286 -0.925000
v 0.925000 0.005286 -0.075000
v 0.871875 0.005286 -0.128125
v 0.818750 0.014286 -0.818750
v 0.818750 0.014286 -0.181250
v 0.765625 0.014286 -0.234375
v 0.765625 0.014286 -0.765625
v 0.234375 0.185286 -0.234375
v 0.287500 0.185286 -0.287500
v 0.287500 0.185286 -0.712500
v 0.765625 0.185286 -0.234375
v 0.712500 0.185286 -0.287500
v 0.871875 0.125286 -0.871875
v 0.340625 0.245286 -0.340625
v 0.659375 0.245286 -0.340625
v 0.606250 0.245286 -0.393750
v 0.393750 0.245286 -0.393750
v 0.393750 0.245286 -0.606250
v 0.340625 0.245286 -0.659375
v 0.606250 0.245286 -0.606250
v 0.659375 0.245286 -0.659375
v 0.712500 0.185286 -0.712500
v 0.393750 0.005286 -0.393750
v 0.393750 0.005286 -0.606250
v 0.606250 0.005286 -0.606250
v 0.606250 0.005286 -0.393750
v 0.659375 0.029286 -0.340625
v 0.659375 0.029286 -0.659375
v 0.712500 0.029286 -0.712500
v 0.712500 0.029286 -0.287500
v 0.553125 0.185286 -0.553125
v 0.446875 0.185286 -0.553125
v 0.287500 0.029286 -0.712500
v 0.340625 0.029286 -0.659375
v 0.340625 0.029286 -0.340625
v 0.287500 0.029286 -0.287500
v 0.128125 0.005286 -0.871875
v 0.128125 0.005286 -0.128125
v 0.446875 0.185286 -0.446875
v 0.553125 0.185286 -0.446875
vt 0.531250 0.187500
vt 0.500000 0.125000
vt 1.000000 0.125000
vt 0.968750 0.187500
vt 0.437500 0.062500
vt 0.062500 0.062500
vt 0.031250 0.000000
vt 0.468750 0.000000
vt 0.437500 0.562500
vt 0.406250 0.593750
vt 0.406250 0.906250
vt 0.437500 0.937500
vt 0.593750 0.906250
vt 0.906250 0.906250
vt 0.937500 0.968750
vt 0.562500 0.968750
vt 0.031250 0.531250
vt 0.000000 0.500000
vt 0.000000 1.000000
vt 0.031250 0.968750
vt 0.062500 0.562500
vt 0.062500 0.937500
vt 0.093750 0.906250
vt 0.093750 0.593750
vt 0.531250 0.937500
vt 0.531250 0.562500
vt 0.593750 0.593750
vt 0.906250 0.593750
vt 0.875000 0.875000
vt 0.875000 0.625000
vt 0.625000 0.875000
vt 0.968750 0.062500
vt 0.531250 0.062500
vt 0.500000 0.000000
vt 1.000000 0.000000
vt 1.000000 0.187500
vt 0.500000 0.187500
vt 0.531250 0.250000
vt 0.968750 0.250000
vt 0.843750 0.843750
vt 0.656250 0.843750
vt 0.687500 0.812500
vt 0.812500 0.812500
vt 0.812500 0.687500
vt 0.843750 0.656250
vt 0.687500 0.687500
vt 0.656250 0.656250
vt 0.625000 0.625000
vt 0.312500 0.812500
vt 0.312500 0.687500
vt 0.187500 0.687500
vt 0.187500 0.812500
vt 0.156250 0.843750
vt 0.156250 0.656250
vt 0.125000 0.625000
vt 0.125000 0.875000
vt 0.718750 0.718750
vt 0.781250 0.718750
vt 0.375000 0.625000
vt 0.343750 0.656250
vt 0.343750 0.843750
vt 0.375000 0.875000
vt 0.437500 0.437500
vt 0.500000 0.031250
vt 0.500000 0.468750
vt 0.968750 0.937500
vt 0.968750 0.562500
vt 0.500000 0.062500
vt 1.000000 0.062500
vt 0.968750 0.125000
vt 0.531250 0.125000
vt 0.468750 0.531250
vt 0.500000 0.500000
vt 0.468750 0.968750
vt 0.781250 0.781250
vt 0.562500 0.531250
vt 0.937500 0.531250
vt 0.718750 0.781250
vt 0.031250 0.500000
vt 0.062500 0.437500
vt 0.468750 0.500000
vt 0.500000 1.000000
vt 0.000000 0.031250
vt 0.000000 0.468750
vn -0.914400 0.404800 0.000000
vn 0.136200 0.990700 0.000000
vn -0.136200 0.990700 0.000000
vn -0.000000 0.797400 0.603500
vn -0.000000 -0.994900 0.100400
vn 0.039800 -0.999200 -0.000000
vn -0.000000 -0.994900 -0.100400
vn 0.000000 0.880600 -0.473800
vn 0.000000 0.662900 -0.748700
vn -0.024100 -0.999700 -0.000000
vn 0.000000 -0.709100 -0.705100
vn 0.000000 -0.709100 0.705100
vn -0.039800 -0.999200 -0.000000
vn -0.748700 0.662900 0.000000
vn 0.000000 0.880600 0.473800
vn -0.000000 0.797400 -0.603500
vn 0.000000 -1.000000 -0.000000
vn 0.062500 -0.998000 -0.000000
vn -0.000000 -0.986500 0.164000
vn -0.000000 -0.986500 -0.164000
vn 0.000000 0.662900 0.748700
vn -0.062500 -0.998000 -0.000000
vn 0.748700 0.662900 0.000000
vn 0.914400 0.404800 0.000000
vn 0.000000 -0.986000 0.167000
vn 0.024100 -0.999700 -0.000000
vn 0.000000 -0.986000 -0.167000
vn 0.167000 -0.986000 -0.000000
vn -0.167000 -0.986000 -0.000000
vn 0.000000 -0.962400 0.271700
vn 0.271700 -0.962400 -0.000000
vn 0.000000 -0.962400 -0.271700
vn -0.271700 -0.962400 -0.000000
vn 0.000000 -0.911300 0.411700
vn -0.411700 -0.911300 -0.000000
vn 0.000000 -0.911300 -0.411700
vn 0.411700 -0.911300 -0.000000
vn 0.000000 1.000000 0.000000
s 1
f 1/1/1 2/2/1 3/3/1 4/4/1
f 5/5/2 6/6/3 4/7/4 7/8/4
f 8/9/5 9/10/6 10/11/6 11/12/7
f 12/13/8 13/14/8 14/15/9 15/16/9
f 16/17/10 17/18/11 18/19/12 19/20/10
f 20/21/5 21/22/7 22/23/13 23/24/13
f 15/25/3 6/26/3 24/27/14 12/13/14
f 12/28/8 24/14/15 25/29/3 26/30/3
f 24/14/15 27/13/15 28/31/2 25/29/3
f 7/32/4 4/33/4 3/34/12 18/35/12
f 17/36/11 2/37/11 1/38/16 29/39/16
f 30/40/15 31/41/15 32/42/3 33/43/2
f 33/43/2 34/44/2 35/45/8 30/40/15
f 36/46/3 37/47/8 35/45/8 34/44/2
f 32/42/3 31/41/15 37/47/8 36/46/3
f 26/30/9 35/45/8 37/47/8 38/48/9
f 39/49/17 40/50/17 41/51/17 42/52/17
f 11/12/7 10/11/6 22/23/13 21/22/7
f 43/53/18 44/54/18 45/55/19 46/56/20
f 47/57/21 36/46/21 34/44/21 48/58/21
f 13/27/8 12/28/8 26/30/3 38/48/2
f 30/40/15 25/29/21 28/31/21 31/41/15
f 49/59/19 50/60/22 51/61/22 52/62/20
f 28/31/2 27/13/15 13/27/8 38/48/2
f 14/63/2 5/5/2 7/64/4 29/65/16
f 14/66/2 13/14/23 27/28/23 5/67/2
f 18/68/24 17/69/24 29/70/24 7/71/24
f 43/53/18 46/56/20 52/62/20 51/61/22
f 20/21/5 8/9/5 53/72/25 16/17/25
f 2/73/11 17/18/11 16/17/10 53/72/26
f 19/20/27 54/74/27 11/12/7 21/22/7
f 53/72/26 8/9/28 11/12/28 54/74/26
f 8/9/5 20/21/5 23/24/13 9/10/6
f 50/60/22 49/59/19 45/55/19 44/54/18
f 16/17/10 19/20/10 21/22/29 20/21/29
f 31/47/23 28/48/2 38/31/2 37/41/23
f 35/45/14 26/30/3 25/29/3 30/40/14
f 33/43/2 55/75/23 48/58/23 34/44/2
f 5/76/21 27/27/15 24/28/15 6/77/21
f 36/46/3 47/57/14 56/78/14 32/42/3
f 55/75/9 33/43/9 32/42/9 56/78/9
f 1/79/16 15/80/3 14/63/2 29/81/16
f 23/24/30 45/55/19 49/59/19 9/10/30
f 9/10/6 49/59/31 52/62/31 10/11/6
f 10/11/32 52/62/20 46/56/20 22/23/32
f 22/23/13 46/56/33 45/55/33 23/24/13
f 42/52/34 43/53/34 51/61/34 39/49/34
f 40/50/35 39/49/35 51/61/22 50/60/22
f 40/50/36 50/60/36 44/54/36 41/51/36
f 43/53/18 42/52/37 41/51/37 44/54/18
f 47/57/38 48/58/38 55/75/38 56/78/38
f 2/73/11 53/72/26 54/74/26 3/82/12
f 4/83/4 6/6/3 15/80/3 1/84/16
f 3/82/12 54/74/26 19/20/10 18/19/12
o Cube
v 0.062500 0.000000 0.937500
v 0.125000 0.125000 0.875000
v 0.062500 0.000000 0.062500
v 0.125000 0.125000 0.125000
v 0.937500 0.000000 0.937500
v 0.875000 0.125000 0.875000
v 0.937500 0.000000 0.062500
v 0.875000 0.125000 0.125000
v 0.812500 0.125000 0.187500
v 0.187500 0.125000 0.187500
v 0.812500 0.125000 0.812500
v 0.187500 0.125000 0.812500
v 0.750000 0.187500 0.750000
v 0.750000 0.187500 0.250000
v 0.250000 0.187500 0.750000
v 0.250000 0.187500 0.250000
v 0.625000 0.250000 0.375000
v 0.375000 0.250000 0.625000
v 0.375000 0.250000 0.375000
v 0.625000 0.250000 0.625000
v 0.312500 0.187500 0.687501
v 0.312500 0.187500 0.312500
v 0.687500 0.187500 0.312500
v 0.687500 0.187500 0.687501
v 0.562500 0.187500 0.562500
v 0.437500 0.187500 0.562500
v 0.437500 0.187500 0.437500
v 0.562500 0.187500 0.437500
v 0.187500 0.062500 0.812500
v 0.187500 0.062500 0.187500
v 0.812500 0.062500 0.812500
v 0.812500 0.062500 0.187500
v 0.125000 0.000000 0.125000
v 0.875000 0.000000 0.125000
v 0.125000 0.000000 0.874999
v 0.875000 0.000000 0.874999
vt 0.062500 0.093750
vt 0.062500 0.468750
vt 0.000000 0.500000
vt 0.000000 0.062500
vt 0.437500 0.468750
vt 0.468750 0.531250
vt 0.031250 0.531250
vt 0.437500 0.093750
vt 0.500000 0.062500
vt 0.500000 0.500000
vt 0.031250 0.031250
vt 0.468750 0.031250
vt 0.406250 0.968750
vt 0.406250 0.593750
vt 0.437500 0.562500
vt 0.437500 1.000000
vt 0.406250 0.125000
vt 0.093750 0.125000
vt 0.093750 0.437500
vt 0.406250 0.437500
vt 0.125000 0.406250
vt 0.375000 0.406250
vt 0.156250 0.187500
vt 0.343750 0.187500
vt 0.312500 0.218750
vt 0.187500 0.218750
vt 0.375000 0.156250
vt 0.125000 0.156250
vt 0.156250 0.375000
vt 0.187500 0.343750
vt 0.343750 0.375000
vt 0.312500 0.343750
vt 0.218750 0.312500
vt 0.281250 0.312500
vt 0.218750 0.250000
vt 0.281250 0.250000
vt 0.000000 1.000000
vt -0.000000 0.562500
vt 0.031250 0.593750
vt 0.031250 0.968750
vt 0.062500 0.937500
vt 0.375000 0.937500
vt 0.375000 0.625000
vt 0.062500 0.625000
vn -0.894400 0.447200 0.000000
vn 0.000000 0.447200 -0.894400
vn 0.894400 0.447200 0.000000
vn 0.000000 0.447200 0.894400
vn 0.000000 -1.000000 0.000000
vn 0.000000 1.000000 0.000000
vn 0.000000 0.707100 -0.707100
vn -0.000000 0.707100 0.707100
vn -0.707100 0.707100 0.000000
vn 0.707100 0.707100 0.000000
vn -0.000000 -0.707100 -0.707100
vn -0.707100 -0.707100 0.000000
vn 0.707100 -0.707100 0.000000
vn 0.000000 -0.707100 0.707100
usemtl None
s off
f 58/85/39 60/86/39 59/87/39 57/88/39
f 60/86/40 64/89/40 63/90/40 59/91/40
f 64/89/41 62/92/41 61/93/41 63/94/41
f 62/92/42 58/85/42 57/95/42 61/96/42
f 92/97/43 90/98/43 63/99/43 61/100/43
f 62/92/44 67/101/44 68/102/44 58/85/44
f 60/86/44 66/103/44 65/104/44 64/89/44
f 62/92/44 64/89/44 65/104/44 67/101/44
f 58/85/44 68/102/44 66/103/44 60/86/44
f 65/104/45 66/103/45 72/105/45 70/106/45
f 77/107/46 80/108/46 76/109/46 74/110/46
f 68/102/46 67/101/46 69/111/46 71/112/46
f 66/103/47 68/102/47 71/112/47 72/105/47
f 67/101/48 65/104/48 70/106/48 69/111/48
f 78/113/47 77/107/47 74/110/47 75/114/47
f 78/113/44 79/115/44 70/106/44 72/105/44
f 72/105/44 71/112/44 77/107/44 78/113/44
f 79/115/45 78/113/45 75/114/45 73/116/45
f 69/111/44 70/106/44 79/115/44 80/108/44
f 73/116/46 75/114/46 83/117/46 84/118/46
f 71/112/44 69/111/44 80/108/44 77/107/44
f 80/108/48 79/115/48 73/116/48 76/109/48
f 82/119/44 81/120/44 84/118/44 83/117/44
f 74/110/45 76/109/45 81/120/45 82/119/45
f 76/109/47 73/116/47 84/118/47 81/120/47
f 75/114/48 74/110/48 82/119/48 83/117/48
f 57/121/43 59/122/43 89/123/43 91/124/43
f 92/97/49 91/124/49 85/125/49 87/126/49
f 90/98/50 92/97/50 87/126/50 88/127/50
f 85/125/43 86/128/43 88/127/43 87/126/43
f 59/122/43 63/99/43 90/98/43 89/123/43
f 91/124/43 92/97/43 61/100/43 57/121/43
f 91/124/51 89/123/51 86/128/51 85/125/51
f 89/123/52 90/98/52 88/127/52 86/128/52
o Cube_Cube.001
v 0.000000 -0.000000 0.062500
v 0.000000 0.062500 0.062500
v 0.000000 0.062500 0.000000
v 0.000000 0.000000 0.000000
v 0.937500 0.000000 0.000000
v 0.937500 0.062500 0.000000
v 1.000000 0.062500 0.000000
v 1.000000 0.000000 0.000000
v 1.000000 -0.000000 0.937500
v 1.000000 0.062500 0.937500
v 1.000000 0.062500 1.000000
v 1.000000 -0.000000 1.000000
v 0.062500 -0.000000 1.000000
v 0.062500 0.062500 1.000000
v 0.000000 0.062500 1.000000
v 0.000000 -0.000000 1.000000
v 0.062500 -0.000000 0.062500
v 0.062500 0.000000 0.000000
v 0.937500 -0.000000 0.062500
v 0.000000 0.937500 0.062500
v 0.000000 0.937500 0.000000
v 0.031250 0.062500 0.062500
v 0.000000 0.062500 0.937500
v 0.031250 0.062500 0.937500
v 0.062500 0.937500 0.000000
v 0.000000 1.000000 0.000000
v 0.062500 1.000000 0.000000
v 1.000000 0.062500 0.062500
v 0.968750 0.062500 0.062500
v 0.968750 0.062500 0.937500
v 0.437500 0.062500 0.437500
v 0.562500 0.062500 0.437500
v 0.937500 0.062500 0.062500
v 0.062500 0.062500 0.062500
v 0.062500 0.937500 1.000000
v 0.000000 0.937500 1.000000
v 0.937500 0.062500 0.031250
v 0.062500 0.062500 0.000000
v 0.062500 0.062500 0.031250
v 0.000000 -0.000000 0.937500
v 0.937500 0.062500 1.000000
v 0.937500 -0.000000 1.000000
v 1.000000 -0.000000 0.062500
v 0.000000 0.937500 0.937500
v 0.031250 0.937500 0.937500
v 1.000000 0.937500 0.937500
v 1.000000 0.937500 1.000000
v 0.062500 1.000000 1.000000
v 0.062500 1.000000 0.937500
v 0.000000 1.000000 0.937500
v 0.000000 1.000000 1.000000
v 1.000000 0.937500 0.062500
v 0.968750 0.937500 0.062500
v 0.062500 0.937500 0.937500
v 0.937500 0.937500 0.937500
v 0.937500 0.937500 0.968750
v 0.062500 0.937500 0.968750
v 1.000000 0.937500 0.000000
v 0.937500 0.968750 0.937500
v 0.937500 0.968750 0.062500
v 0.937500 0.937500 0.062500
v 1.000000 1.000000 0.937500
v 1.000000 1.000000 1.000000
v 0.937500 1.000000 0.937500
v 1.000000 1.000000 0.062500
v 0.937500 1.000000 0.062500
v 1.000000 1.000000 0.000000
v 0.062500 0.968750 0.937500
v 0.937500 0.937500 1.000000
v 0.937500 1.000000 1.000000
v 0.968750 0.937500 0.937500
v 0.062500 0.062500 0.968750
v 0.062500 0.062500 0.937500
v 0.062500 0.937500 0.062500
v 0.031250 0.937500 0.062500
v 0.062500 0.937500 0.031250
v 0.062500 0.968750 0.062500
v 0.062500 1.000000 0.062500
v 0.000000 1.000000 0.062500
v 0.937500 1.000000 0.000000
v 0.937500 0.937500 0.000000
v 0.937500 0.937500 0.031250
v 0.937500 0.062500 0.937500
v 0.937500 0.062500 0.968750
v 0.437500 0.062500 0.562500
v 0.562500 0.062500 0.562500
v 0.562500 0.406250 0.437500
v 0.562500 0.406250 0.562500
v 0.437500 0.406250 0.437500
v 0.437500 0.406250 0.562500
v 0.406250 0.406250 0.406250
v 0.593750 0.406250 0.406250
v 0.406250 0.406250 0.593750
v 0.593750 0.406250 0.593750
v 0.593750 0.593750 0.406250
v 0.406250 0.593750 0.406250
v 0.406250 0.593750 0.593750
v 0.593750 0.593750 0.593750
v 0.062500 -0.000000 0.937500
v 0.937500 -0.000000 0.937500
vt 0.015625 0.726562
vt 0.015625 0.734375
vt 0.007812 0.734375
vt 0.007812 0.726562
vt 0.437500 0.726562
vt 0.437500 0.734375
vt 0.429688 0.734375
vt 0.429688 0.726562
vt 0.296875 0.726562
vt 0.296875 0.734375
vt 0.289062 0.734375
vt 0.289062 0.726562
vt 0.156250 0.726562
vt 0.156250 0.734375
vt 0.148438 0.734375
vt 0.148438 0.726562
vt 0.156250 0.601562
vt 0.156250 0.593750
vt 0.265625 0.593750
vt 0.265625 0.601562
vt 0.015625 0.843750
vt 0.007812 0.843750
vt 0.015625 0.718750
vt 0.125000 0.726562
vt 0.125000 0.718750
vt 0.546875 0.843750
vt 0.554688 0.843750
vt 0.554688 0.851562
vt 0.546875 0.851562
vt 0.406250 0.718750
vt 0.406250 0.726562
vt 0.296875 0.718750
vt 0.218750 0.515625
vt 0.218750 0.531250
vt 0.265625 0.578125
vt 0.265625 0.468750
vt 0.156250 0.843750
vt 0.148438 0.843750
vt 0.437500 0.718750
vt 0.546875 0.718750
vt 0.546875 0.726562
vt 0.546875 0.734375
vt 0.554688 0.734375
vt 0.125000 0.734375
vt 0.132812 0.734375
vt 0.132812 0.726562
vt 0.265625 0.734375
vt 0.265625 0.726562
vt 0.273438 0.734375
vt 0.273438 0.726562
vt 0.406250 0.734375
vt 0.414062 0.734375
vt 0.414062 0.726562
vt 0.554688 0.726562
vt 0.140625 0.734375
vt 0.140625 0.843750
vt 0.132812 0.843750
vt 0.125000 0.843750
vt 0.296875 0.843750
vt 0.289062 0.843750
vt 0.156250 0.867188
vt 0.156250 0.875000
vt 0.148438 0.875000
vt 0.148438 0.867188
vt 0.421875 0.734375
vt 0.414062 0.843750
vt 0.421875 0.843750
vt 0.156250 0.859375
vt 0.265625 0.859375
vt 0.265625 0.851562
vt 0.156250 0.851562
vt 0.406250 0.843750
vt 0.148438 0.851562
vt 0.281250 0.875000
vt 0.273438 0.875000
vt 0.273438 0.984375
vt 0.281250 0.984375
vt 0.296875 0.851562
vt 0.289062 0.851562
vt 0.132812 0.851562
vt 0.125000 0.851562
vt 0.265625 0.875000
vt 0.265625 0.984375
vt 0.414062 0.851562
vt 0.406250 0.851562
vt 0.265625 0.867188
vt 0.265625 0.843750
vt 0.281250 0.734375
vt 0.281250 0.843750
vt 0.273438 0.843750
vt 0.273438 0.851562
vt 0.273438 0.867188
vt 0.000000 0.734375
vt -0.000000 0.843750
vt 0.562500 0.734375
vt 0.562500 0.843750
vt 0.140625 0.875000
vt 0.148438 0.984375
vt 0.140625 0.984375
vt 0.156250 0.984375
vt 0.156250 0.992188
vt 0.148438 0.992188
vt 0.015625 0.851562
vt 0.125000 0.859375
vt 0.015625 0.859375
vt 0.007812 0.851562
vt 0.296875 0.859375
vt 0.406250 0.859375
vt 0.437500 0.851562
vt 0.437500 0.843750
vt 0.429688 0.843750
vt 0.273438 0.992188
vt 0.265625 0.992188
vt 0.429688 0.851562
vt 0.546875 0.859375
vt 0.437500 0.859375
vt 0.156250 1.000000
vt 0.265625 1.000000
vt 0.265625 0.718750
vt 0.156250 0.718750
vt 0.156250 0.468750
vt 0.203125 0.515625
vt 0.156250 0.578125
vt 0.203125 0.531250
vt 0.359375 0.617188
vt 0.390625 0.617188
vt 0.390625 0.710938
vt 0.359375 0.710938
vt 0.398438 0.617188
vt 0.429688 0.617188
vt 0.429688 0.710938
vt 0.398438 0.710938
vt 0.281250 0.617188
vt 0.312500 0.617188
vt 0.312500 0.710938
vt 0.281250 0.710938
vt 0.320312 0.617188
vt 0.351562 0.617188
vt 0.351562 0.710938
vt 0.320312 0.710938
vt 0.367188 0.898438
vt 0.335938 0.898438
vt 0.328125 0.906250
vt 0.375000 0.906250
vt 0.335938 0.867188
vt 0.328125 0.859375
vt 0.367188 0.867188
vt 0.375000 0.859375
vt 0.375000 0.953125
vt 0.375000 1.000000
vt 0.328125 1.000000
vt 0.328125 0.953125
vt 0.421875 0.906250
vt 0.421875 0.953125
vt 0.468750 0.953125
vt 0.468750 0.906250
vt 0.281250 0.953125
vt 0.281250 0.906250
vt 0.273438 0.593750
vt 0.273438 0.601562
vt 0.148438 0.601562
vt 0.148438 0.593750
vt 0.148438 0.718750
vt 0.148438 0.710938
vt 0.156250 0.710938
vt 0.265625 0.710938
vt 0.273438 0.710938
vt 0.273438 0.718750
vn -1.000000 0.000000 0.000000
vn 0.000000 0.000000 -1.000000
vn 1.000000 0.000000 0.000000
vn 0.000000 0.000000 1.000000
vn 0.000000 -1.000000 -0.000000
vn 0.000000 1.000000 0.000000
s 1
f 93/129/53 94/130/53 95/131/53 96/132/53
f 97/133/54 98/134/54 99/135/54 100/136/54
f 101/137/55 102/138/55 103/139/55 104/140/55
f 105/141/56 106/142/56 107/143/56 108/144/56
f 109/145/57 110/146/57 97/147/57 111/148/57
f 95/131/53 94/130/53 112/149/53 113/150/53
f 114/151/58 94/129/58 115/152/58 116/153/58
f 117/154/54 113/155/54 118/156/54 119/157/54
f 120/158/58 121/159/58 122/137/58 102/160/58
f 123/161/58 124/162/58 125/163/58 126/164/58
f 107/143/56 106/142/56 127/165/56 128/166/56
f 129/133/58 98/167/58 130/168/58 131/169/58
f 130/170/54 95/171/54 113/155/54 117/154/54
f 115/172/53 94/130/53 93/129/53 132/152/53
f 107/173/53 115/172/53 132/152/53 108/174/53
f 133/175/56 106/142/56 105/141/56 134/176/56
f 103/177/56 133/175/56 134/176/56 104/178/56
f 120/179/55 102/138/55 101/137/55 135/159/55
f 99/180/55 120/179/55 135/159/55 100/181/55
f 130/170/54 98/134/54 97/133/54 110/169/54
f 95/171/54 130/170/54 110/169/54 96/182/54
f 116/173/54 115/183/54 136/184/54 137/185/54
f 115/172/53 107/173/53 128/185/53 136/186/53
f 103/139/55 102/138/55 138/187/55 139/188/55
f 140/189/58 141/190/58 142/191/58 143/192/58
f 121/193/56 120/180/56 144/194/56 145/195/56
f 146/196/57 147/197/57 148/198/57 149/199/57
f 120/179/55 99/180/55 150/194/55 144/200/55
f 128/166/56 127/165/56 140/199/56 143/201/56
f 147/202/53 151/203/53 152/204/53 153/205/53
f 139/188/55 138/187/55 154/206/55 155/207/55
f 136/186/53 128/185/53 143/208/53 142/209/53
f 156/210/58 154/203/58 157/204/58 158/211/58
f 144/200/55 150/194/55 159/212/55 157/213/55
f 146/196/54 160/189/54 151/214/54 147/197/54
f 140/199/56 127/165/56 161/215/56 162/198/56
f 141/190/58 140/189/58 162/214/58 156/210/58
f 102/216/54 122/139/54 163/188/54 138/217/54
f 149/184/55 164/183/55 165/143/55 146/166/55
f 133/175/56 103/177/56 139/218/56 161/215/56
f 161/215/56 139/218/56 155/219/56 162/198/56
f 155/220/58 154/203/58 156/210/58 162/214/58
f 154/206/55 138/187/55 144/200/55 157/213/55
f 114/131/56 126/221/56 166/222/56 167/150/56
f 131/171/55 130/223/55 117/224/55 168/155/55
f 160/225/55 146/191/55 166/226/55 169/227/55
f 170/228/58 119/229/58 118/230/58 171/226/58
f 136/186/53 142/209/53 171/231/53 112/149/53
f 137/232/57 136/209/57 112/231/57 167/233/57
f 113/150/53 112/149/53 171/231/53 118/234/53
f 142/191/58 141/190/58 170/228/58 171/226/58
f 138/235/57 163/206/57 145/213/57 144/236/57
f 117/154/54 119/157/54 172/237/54 173/238/54
f 98/193/53 129/135/53 174/239/53 173/195/53
f 99/135/54 98/134/54 173/238/54 150/239/54
f 157/204/58 159/240/58 172/241/58 158/211/58
f 150/239/54 173/238/54 172/237/54 159/242/54
f 168/157/57 117/243/57 173/244/57 174/237/57
f 119/229/58 170/228/58 158/211/58 172/241/58
f 169/245/56 166/229/56 153/241/56 152/246/56
f 147/218/53 175/177/53 176/216/53 148/217/53
f 106/141/58 133/176/58 176/247/58 164/248/58
f 123/161/58 126/164/58 165/249/58 177/250/58
f 175/251/58 178/252/58 177/250/58 165/249/58
f 178/253/55 124/254/55 179/255/55 180/256/55
f 178/252/58 175/251/58 125/163/58 124/162/58
f 124/257/54 123/258/54 181/259/54 179/260/54
f 123/261/53 177/262/53 182/263/53 181/264/53
f 177/265/56 178/266/56 180/267/56 182/268/56
f 179/269/57 181/270/57 183/271/57 184/272/57
f 181/270/57 182/273/57 185/274/57 183/271/57
f 182/273/57 180/275/57 186/276/57 185/274/57
f 179/269/57 184/272/57 186/276/57 180/275/57
f 187/277/58 188/278/58 189/279/58 190/280/58
f 190/277/56 189/280/56 185/271/56 186/272/56
f 190/277/55 186/272/55 184/281/55 187/282/55
f 188/283/54 187/282/54 184/281/54 183/284/54
f 189/280/53 188/285/53 183/286/53 185/271/53
f 164/248/58 176/247/58 175/176/58 165/141/58
f 127/166/55 106/143/55 164/183/55 149/184/55
f 149/196/57 148/197/57 161/198/57 127/199/57
f 148/218/53 176/177/53 133/216/53 161/217/53
f 121/158/58 125/159/58 175/137/58 122/160/58
f 125/180/56 121/193/56 145/195/56 153/194/56
f 122/139/54 175/216/54 147/217/54 163/188/54
f 163/206/57 147/235/57 153/236/57 145/213/57
f 125/133/58 129/167/58 131/168/58 126/169/58
f 126/171/55 131/223/55 168/224/55 166/155/55
f 166/157/57 168/243/57 174/244/57 153/237/57
f 129/193/53 125/135/53 153/239/53 174/195/53
f 126/151/58 114/129/58 116/152/58 165/153/58
f 165/183/54 116/173/54 137/185/54 146/184/54
f 146/209/57 137/232/57 167/233/57 166/231/57
f 94/221/56 114/131/56 167/150/56 112/222/56
f 160/189/54 141/196/54 156/197/54 151/214/54
f 141/191/55 160/225/55 169/227/55 170/226/55
f 170/245/56 169/229/56 152/241/56 158/246/56
f 151/203/53 156/202/53 158/205/53 152/204/53
f 111/148/57 97/147/57 100/287/57 135/288/57
f 93/289/57 96/290/57 110/146/57 109/145/57
f 108/291/57 132/292/57 191/293/57 105/248/57
f 105/248/57 191/293/57 192/294/57 134/247/57
f 134/247/57 192/294/57 101/295/57 104/296/57
f 132/292/57 93/289/57 109/145/57 191/293/57
f 191/293/57 109/145/57 111/148/57 192/294/57
f 192/294/57 111/148/57 135/288/57 101/295/57
